<svg viewBox="0 0 39 26" xmlns="http://www.w3.org/2000/svg">
  <g transform="matrix(0.185551, 0, 0, 0.185551, 1.143719, -4.218971)" style="">
    <path style="opacity:1" fill="#feeed6" d="M 111.5,40.5 C 108.833,40.5 106.167,40.5 103.5,40.5C 98.3186,39.3636 92.9853,39.3636 87.5,40.5C 88.3984,39.8423 89.3984,39.1757 90.5,38.5C 97.8516,36.8553 104.852,37.522 111.5,40.5 Z"></path>
  </g>
  <g transform="matrix(0.185551, 0, 0, 0.185551, 1.143719, -4.218971)" style="">
    <path style="opacity:1" fill="#f9b14f" d="M 72.5,31.5 C 73.3382,31.8417 73.6716,32.5084 73.5,33.5C 73.5,38.8333 73.5,44.1667 73.5,49.5C 72.6745,45.0181 72.1745,40.3514 72,35.5C 71.1475,33.8753 70.1475,33.5419 69,34.5C 68.0182,39.5238 68.5182,44.3571 70.5,49C 70.3699,50.0588 69.8699,50.8921 69,51.5C 68.5003,59.4931 68.3336,67.4931 68.5,75.5C 67.504,61.0095 67.1707,46.3428 67.5,31.5C 67.4701,30.5028 67.9701,29.8361 69,29.5C 70.0769,30.4295 71.2436,31.0962 72.5,31.5 Z"></path>
  </g>
  <g transform="matrix(0.185551, 0, 0, 0.185551, 1.143719, -4.218971)" style="">
    <path style="opacity:1" fill="#feebbb" d="M 73.5,33.5 C 73.8616,38.4208 74.8616,43.0874 76.5,47.5C 76.1788,49.0481 75.1788,49.7148 73.5,49.5C 73.5,44.1667 73.5,38.8333 73.5,33.5 Z"></path>
  </g>
  <g transform="matrix(0.185551, 0, 0, 0.185551, 1.143719, -4.218971)" style="">
    <path style="opacity:1" fill="#f4c787" d="M 103.5,40.5 C 97.3943,40.377 91.3943,41.0437 85.5,42.5C 85.5,41.1667 86.1667,40.5 87.5,40.5C 92.9853,39.3636 98.3186,39.3636 103.5,40.5 Z"></path>
  </g>
  <g transform="matrix(0.185551, 0, 0, 0.185551, 1.143719, -4.218971)" style="">
    <path style="opacity:1" fill="#f2b35c" d="M 103.5,40.5 C 106.167,40.5 108.833,40.5 111.5,40.5C 111.5,41.1667 111.5,41.8333 111.5,42.5C 111.5,42.8333 111.5,43.1667 111.5,43.5C 100.278,40.2585 89.6117,41.5918 79.5,47.5C 81.0592,45.3757 83.0592,43.709 85.5,42.5C 91.3943,41.0437 97.3943,40.377 103.5,40.5 Z"></path>
  </g>
  <g transform="matrix(0.185551, 0, 0, 0.185551, 1.143719, -4.218971)" style="">
    <path style="opacity:1" fill="#f1b665" d="M 67.5,31.5 C 67.1707,46.3428 67.504,61.0095 68.5,75.5C 69.2937,78.802 69.9604,82.1353 70.5,85.5C 69.2895,83.3704 67.9561,81.3704 66.5,79.5C 66.1703,63.3246 66.5036,47.3246 67.5,31.5 Z"></path>
  </g>
  <g transform="matrix(0.185551, 0, 0, 0.185551, 1.143719, -4.218971)" style="">
    <path style="opacity:1" fill="#f5cf95" d="M 111.5,43.5 C 111.5,43.1667 111.5,42.8333 111.5,42.5C 112.873,42.3433 114.207,42.51 115.5,43C 117.692,44.0669 119.358,45.5669 120.5,47.5C 117.497,46.1661 114.497,44.8327 111.5,43.5 Z"></path>
  </g>
  <g transform="matrix(0.185551, 0, 0, 0.185551, 1.143719, -4.218971)" style="">
    <path style="opacity:1" fill="#fde2af" d="M 72.5,31.5 C 71.2436,31.0962 70.0769,30.4295 69,29.5C 67.9701,29.8361 67.4701,30.5028 67.5,31.5C 66.5036,47.3246 66.1703,63.3246 66.5,79.5C 65.5034,62.6749 65.1701,45.6749 65.5,28.5C 67.5273,28.3379 69.5273,28.5045 71.5,29C 72.2524,29.6708 72.5858,30.5041 72.5,31.5 Z"></path>
  </g>
  <g transform="matrix(0.185551, 0, 0, 0.185551, 1.143719, -4.218971)" style="">
    <path style="opacity:1" fill="#f9a83d" d="M 73.5,49.5 C 75.1788,49.7148 76.1788,49.0481 76.5,47.5C 77.5,47.5 78.5,47.5 79.5,47.5C 89.6117,41.5918 100.278,40.2585 111.5,43.5C 114.497,44.8327 117.497,46.1661 120.5,47.5C 121.786,50.117 123.453,52.4504 125.5,54.5C 127.308,55.9179 127.975,57.9179 127.5,60.5C 129.102,66.7172 129.768,73.0506 129.5,79.5C 127.744,80.5521 127.077,82.2188 127.5,84.5C 127.5,84.8333 127.5,85.1667 127.5,85.5C 124.914,86.4866 123.581,88.4866 123.5,91.5C 120.37,94.2321 116.704,96.2321 112.5,97.5C 112.167,97 111.833,96.5 111.5,96C 112.429,94.9231 113.096,93.7564 113.5,92.5C 119.167,89.8478 122.5,85.5144 123.5,79.5C 123.828,74.1254 123.495,68.7921 122.5,63.5C 121.396,60.9501 120.063,58.6168 118.5,56.5C 116.467,54.1321 114.133,52.1321 111.5,50.5C 110.101,49.1103 108.434,48.1103 106.5,47.5C 101.167,47.5 95.8333,47.5 90.5,47.5C 87.4887,48.6693 84.822,50.336 82.5,52.5C 78.8502,53.4831 76.5169,55.8164 75.5,59.5C 74.8333,62.1667 74.1667,64.8333 73.5,67.5C 73.1474,73.7355 72.1474,79.7355 70.5,85.5C 69.9604,82.1353 69.2937,78.802 68.5,75.5C 68.3336,67.4931 68.5003,59.4931 69,51.5C 69.8699,50.8921 70.3699,50.0588 70.5,49C 68.5182,44.3571 68.0182,39.5238 69,34.5C 70.1475,33.5419 71.1475,33.8753 72,35.5C 72.1745,40.3514 72.6745,45.0181 73.5,49.5 Z"></path>
  </g>
  <g transform="matrix(0.185551, 0, 0, 0.185551, 1.143719, -4.218971)" style="">
    <path style="opacity:1" fill="#f8e3bd" d="M 85.5,42.5 C 83.0592,43.709 81.0592,45.3757 79.5,47.5C 78.5,47.5 77.5,47.5 76.5,47.5C 76.33,46.1779 76.6634,45.0113 77.5,44C 80.1677,43.433 82.8344,42.933 85.5,42.5 Z"></path>
  </g>
  <g transform="matrix(0.185551, 0, 0, 0.185551, 1.143719, -4.218971)" style="">
    <path style="opacity:1" fill="#fcdfb1" d="M 106.5,47.5 C 108.434,48.1103 110.101,49.1103 111.5,50.5C 109.833,50.5 108.167,50.5 106.5,50.5C 106.5,49.5 106.5,48.5 106.5,47.5 Z"></path>
  </g>
  <g transform="matrix(0.185551, 0, 0, 0.185551, 1.143719, -4.218971)" style="">
    <path style="opacity:1" fill="#f9cf8f" d="M 120.5,47.5 C 122.154,48.7503 123.821,50.0837 125.5,51.5C 125.5,52.5 125.5,53.5 125.5,54.5C 123.453,52.4504 121.786,50.117 120.5,47.5 Z"></path>
  </g>
  <g transform="matrix(0.185551, 0, 0, 0.185551, 1.143719, -4.218971)" style="">
    <path style="opacity:1" fill="#fbe9cb" d="M 125.5,51.5 C 127.708,52.023 129.208,53.3563 130,55.5C 130.497,58.146 130.664,60.8127 130.5,63.5C 129.9,62.0998 128.9,61.0998 127.5,60.5C 127.975,57.9179 127.308,55.9179 125.5,54.5C 125.5,53.5 125.5,52.5 125.5,51.5 Z"></path>
  </g>
  <g transform="matrix(0.185551, 0, 0, 0.185551, 1.143719, -4.218971)" style="">
    <path style="opacity:1" fill="#fbe1bb" d="M 90.5,47.5 C 90.5858,48.4959 90.2524,49.3292 89.5,50C 87.1101,51.5212 84.7768,53.0212 82.5,54.5C 82.5,53.8333 82.5,53.1667 82.5,52.5C 84.822,50.336 87.4887,48.6693 90.5,47.5 Z"></path>
  </g>
  <g transform="matrix(0.185551, 0, 0, 0.185551, 1.143719, -4.218971)" style="">
    <path style="opacity:1" fill="#f4bd73" d="M 82.5,52.5 C 82.5,53.1667 82.5,53.8333 82.5,54.5C 81.2223,54.7822 80.2223,55.4489 79.5,56.5C 78.1667,57.5 76.8333,58.5 75.5,59.5C 76.5169,55.8164 78.8502,53.4831 82.5,52.5 Z"></path>
  </g>
  <g transform="matrix(0.185551, 0, 0, 0.185551, 1.143719, -4.218971)" style="">
    <path style="opacity:1" fill="#fee8cb" d="M 118.5,56.5 C 120.063,58.6168 121.396,60.9501 122.5,63.5C 123.495,68.7921 123.828,74.1254 123.5,79.5C 123.167,79.5 122.833,79.5 122.5,79.5C 122.566,71.5624 121.233,63.8958 118.5,56.5 Z"></path>
  </g>
  <g transform="matrix(0.185551, 0, 0, 0.185551, 1.143719, -4.218971)" style="">
    <path style="opacity:1" fill="#ecb263" d="M 127.5,60.5 C 128.9,61.0998 129.9,62.0998 130.5,63.5C 130.5,68.8333 130.5,74.1667 130.5,79.5C 130.167,79.5 129.833,79.5 129.5,79.5C 129.768,73.0506 129.102,66.7172 127.5,60.5 Z"></path>
  </g>
  <g transform="matrix(0.185551, 0, 0, 0.185551, 1.143719, -4.218971)" style="">
    <path style="opacity:1" fill="#feefcd" d="M 130.5,63.5 C 131.812,65.7432 132.478,68.4098 132.5,71.5C 132.478,74.5902 131.812,77.2568 130.5,79.5C 130.5,74.1667 130.5,68.8333 130.5,63.5 Z"></path>
  </g>
  <g transform="matrix(0.185551, 0, 0, 0.185551, 1.143719, -4.218971)" style="">
    <path style="opacity:1" fill="#f5ba64" d="M 73.5,67.5 C 73.5,74.1667 73.5,80.8333 73.5,87.5C 73.1788,89.0481 72.1788,89.7148 70.5,89.5C 70.5,88.1667 70.5,86.8333 70.5,85.5C 72.1474,79.7355 73.1474,73.7355 73.5,67.5 Z"></path>
  </g>
  <g transform="matrix(0.185551, 0, 0, 0.185551, 1.143719, -4.218971)" style="">
    <path style="opacity:1" fill="#f6c579" d="M 129.5,79.5 C 129.598,81.5529 128.931,83.2196 127.5,84.5C 127.077,82.2188 127.744,80.5521 129.5,79.5 Z"></path>
  </g>
  <g transform="matrix(0.185551, 0, 0, 0.185551, 1.143719, -4.218971)" style="">
    <path style="opacity:1" fill="#fbe6b9" d="M 79.5,56.5 C 77.324,59.8021 75.824,63.4688 75,67.5C 74.8283,74.346 74.3283,81.0126 73.5,87.5C 73.5,80.8333 73.5,74.1667 73.5,67.5C 74.1667,64.8333 74.8333,62.1667 75.5,59.5C 76.8333,58.5 78.1667,57.5 79.5,56.5 Z"></path>
  </g>
  <g transform="matrix(0.185551, 0, 0, 0.185551, 1.143719, -4.218971)" style="">
    <path style="opacity:1" fill="#fdefcb" d="M 66.5,79.5 C 67.9561,81.3704 69.2895,83.3704 70.5,85.5C 70.5,86.8333 70.5,88.1667 70.5,89.5C 67.8209,86.7836 66.4876,83.4503 66.5,79.5 Z"></path>
  </g>
  <g transform="matrix(0.185551, 0, 0, 0.185551, 1.143719, -4.218971)" style="">
    <path style="opacity:1" fill="#b3b3a5" d="M 106.5,87.5 C 101.833,87.5 97.1667,87.5 92.5,87.5C 89.5,87.1667 87.8333,85.5 87.5,82.5C 84.6403,81.9823 82.6403,80.3157 81.5,77.5C 80.1667,72.8333 80.1667,68.1667 81.5,63.5C 83.1667,62.1667 84.8333,60.8333 86.5,59.5C 87.3857,58.675 87.719,57.675 87.5,56.5C 93.6945,54.4373 100.028,54.104 106.5,55.5C 108.806,57.8063 111.14,60.1396 113.5,62.5C 114.325,63.3857 115.325,63.719 116.5,63.5C 116.405,69.2111 116.405,74.7111 116.5,80C 115.1,81.4381 113.433,82.2714 111.5,82.5C 111.167,85.5 109.5,87.1667 106.5,87.5 Z"></path>
  </g>
  <g transform="matrix(0.185551, 0, 0, 0.185551, 1.143719, -4.218971)" style="opacity: 0.8;">
    <path style="opacity:1" fill="#f8f7f5" d="M 92.5,61.5 C 97.085,60.9872 101.418,61.6538 105.5,63.5C 107.316,65.6626 108.316,68.1626 108.5,71C 107.695,74.1664 107.028,77.3331 106.5,80.5C 90.1568,82.649 85.4902,76.3156 92.5,61.5 Z"></path>
  </g>
  <g transform="matrix(0.185551, 0, 0, 0.185551, 1.143719, -4.218971)" style="">
    <path style="opacity:1" fill="#f3c785" d="M 122.5,79.5 C 122.851,82.8116 121.518,85.145 118.5,86.5C 119.397,83.7873 120.73,81.454 122.5,79.5 Z"></path>
  </g>
  <g transform="matrix(0.185551, 0, 0, 0.185551, 1.143719, -4.218971)" style="">
    <path style="opacity:1" fill="#d5d7ca" d="M 92.5,87.5 C 97.1667,87.5 101.833,87.5 106.5,87.5C 102.816,90.528 98.6497,91.1947 94,89.5C 92.9701,89.1639 92.4701,88.4972 92.5,87.5 Z"></path>
  </g>
  <g transform="matrix(0.185551, 0, 0, 0.185551, 1.143719, -4.218971)" style="">
    <path style="opacity:1" fill="#fedba2" d="M 116.5,88.5 C 115.5,89.8333 114.5,91.1667 113.5,92.5C 112.833,92.5 112.167,92.5 111.5,92.5C 112.539,90.4689 114.205,89.1355 116.5,88.5 Z"></path>
  </g>
  <g transform="matrix(0.185551, 0, 0, 0.185551, 1.143719, -4.218971)" style="">
    <path style="opacity:1" fill="#f4c67f" d="M 127.5,85.5 C 127.378,88.2921 126.044,90.2921 123.5,91.5C 123.581,88.4866 124.914,86.4866 127.5,85.5 Z"></path>
  </g>
  <g transform="matrix(0.185551, 0, 0, 0.185551, 1.143719, -4.218971)" style="">
    <path style="opacity:1" fill="#f8b860" d="M 122.5,79.5 C 122.833,79.5 123.167,79.5 123.5,79.5C 122.5,85.5144 119.167,89.8478 113.5,92.5C 114.5,91.1667 115.5,89.8333 116.5,88.5C 117.167,87.8333 117.833,87.1667 118.5,86.5C 121.518,85.145 122.851,82.8116 122.5,79.5 Z"></path>
  </g>
  <g transform="matrix(0.185551, 0, 0, 0.185551, 1.143719, -4.218971)" style="">
    <path style="opacity:1" fill="#fcebcc" d="M 129.5,79.5 C 129.833,79.5 130.167,79.5 130.5,79.5C 130.816,82.9783 130.316,86.3117 129,89.5C 126.287,91.8925 123.787,94.5591 121.5,97.5C 117.953,98.4012 114.62,99.7346 111.5,101.5C 113.485,99.0614 116.152,97.5614 119.5,97C 120.965,95.2258 122.298,93.3925 123.5,91.5C 126.044,90.2921 127.378,88.2921 127.5,85.5C 127.5,85.1667 127.5,84.8333 127.5,84.5C 128.931,83.2196 129.598,81.5529 129.5,79.5 Z"></path>
  </g>
  <g transform="matrix(0.185551, 0, 0, 0.185551, 1.143719, -4.218971)" style="">
    <path style="opacity:1" fill="#f5c482" d="M 85.5,90.5 C 85.5,91.1667 85.5,91.8333 85.5,92.5C 84.5,92.5 83.5,92.5 82.5,92.5C 82.5,98.8333 82.5,105.167 82.5,111.5C 82.5,112.5 82.5,113.5 82.5,114.5C 84.9589,114.69 86.6255,113.69 87.5,111.5C 86.8314,116.609 84.4981,117.609 80.5,114.5C 80.5,106.5 80.5,98.5 80.5,90.5C 82.1667,90.5 83.8333,90.5 85.5,90.5 Z"></path>
  </g>
  <g transform="matrix(0.185551, 0, 0, 0.185551, 1.143719, -4.218971)" style="">
    <path style="opacity:1" fill="#f6ae49" d="M 123.5,91.5 C 122.298,93.3925 120.965,95.2258 119.5,97C 116.152,97.5614 113.485,99.0614 111.5,101.5C 109.167,101.5 106.833,101.5 104.5,101.5C 104.804,100.85 105.137,100.183 105.5,99.5C 100.198,98.6705 94.8642,98.1705 89.5,98C 87.944,96.401 86.2773,94.901 84.5,93.5C 83.8332,99.6535 83.1666,105.654 82.5,111.5C 82.5,105.167 82.5,98.8333 82.5,92.5C 83.5,92.5 84.5,92.5 85.5,92.5C 86.1667,92.5 86.8333,92.5 87.5,92.5C 87.4142,93.4959 87.7476,94.3292 88.5,95C 90.1341,95.4935 91.8008,95.6602 93.5,95.5C 94.5145,96.7647 96.0145,97.4313 98,97.5C 100.544,97.664 102.71,96.9973 104.5,95.5C 107.157,95.0652 109.491,94.0652 111.5,92.5C 112.167,92.5 112.833,92.5 113.5,92.5C 113.096,93.7564 112.429,94.9231 111.5,96C 111.833,96.5 112.167,97 112.5,97.5C 116.704,96.2321 120.37,94.2321 123.5,91.5 Z"></path>
  </g>
  <g transform="matrix(0.185551, 0, 0, 0.185551, 1.143719, -4.218971)" style="">
    <path style="opacity:1" fill="#fdcb88" d="M 93.5,95.5 C 97.1667,95.5 100.833,95.5 104.5,95.5C 102.71,96.9973 100.544,97.664 98,97.5C 96.0145,97.4313 94.5145,96.7647 93.5,95.5 Z"></path>
  </g>
  <g transform="matrix(0.185551, 0, 0, 0.185551, 1.143719, -4.218971)" style="">
    <path style="opacity:1" fill="#f5e7c6" d="M 87.5,92.5 C 90.7654,92.2082 93.7654,92.8749 96.5,94.5C 101.472,93.5869 106.472,92.9202 111.5,92.5C 109.491,94.0652 107.157,95.0652 104.5,95.5C 100.833,95.5 97.1667,95.5 93.5,95.5C 91.8008,95.6602 90.1341,95.4935 88.5,95C 87.7476,94.3292 87.4142,93.4959 87.5,92.5 Z"></path>
  </g>
  <g transform="matrix(0.185551, 0, 0, 0.185551, 1.143719, -4.218971)" style="">
    <path style="opacity:1" fill="#facd8c" d="M 104.5,101.5 C 106.833,101.5 109.167,101.5 111.5,101.5C 109.626,102.285 107.626,102.952 105.5,103.5C 100.167,103.5 94.8333,103.5 89.5,103.5C 90.0356,106.698 89.369,109.365 87.5,111.5C 87.5,108.167 87.5,104.833 87.5,101.5C 93.1667,101.5 98.8333,101.5 104.5,101.5 Z"></path>
  </g>
  <g transform="matrix(0.185551, 0, 0, 0.185551, 1.143719, -4.218971)" style="">
    <path style="opacity:1" fill="#fef1ce" d="M 85.5,90.5 C 83.8333,90.5 82.1667,90.5 80.5,90.5C 80.5,98.5 80.5,106.5 80.5,114.5C 80.1667,114.5 79.8333,114.5 79.5,114.5C 79.5,105.833 79.5,97.1667 79.5,88.5C 82.0101,88.0535 84.0101,88.7202 85.5,90.5 Z"></path>
  </g>
  <g transform="matrix(0.185551, 0, 0, 0.185551, 1.143719, -4.218971)" style="">
    <path style="opacity:1" fill="#faa636" d="M 104.5,101.5 C 98.8333,101.5 93.1667,101.5 87.5,101.5C 87.5,104.833 87.5,108.167 87.5,111.5C 86.6255,113.69 84.9589,114.69 82.5,114.5C 82.5,113.5 82.5,112.5 82.5,111.5C 83.1666,105.654 83.8332,99.6535 84.5,93.5C 86.2773,94.901 87.944,96.401 89.5,98C 94.8642,98.1705 100.198,98.6705 105.5,99.5C 105.137,100.183 104.804,100.85 104.5,101.5 Z"></path>
  </g>
  <g transform="matrix(0.185551, 0, 0, 0.185551, 1.143719, -4.218971)" style="">
    <path style="opacity:1" fill="#f2f0e9" d="M 105.5,103.5 C 101.93,104.608 98.4299,105.942 95,107.5C 94.3109,106.643 93.4776,105.977 92.5,105.5C 91.6816,107.108 91.0149,108.775 90.5,110.5C 92.0049,111.842 92.6715,113.508 92.5,115.5C 94.7216,116.386 96.8882,116.386 99,115.5C 100.892,115.777 102.225,116.777 103,118.5C 105.354,116.363 108.188,115.363 111.5,115.5C 111.5,116.5 111.5,117.5 111.5,118.5C 109.833,118.5 108.167,118.5 106.5,118.5C 105.853,131.544 106.52,144.211 108.5,156.5C 110.915,157.814 113.748,158.481 117,158.5C 121.572,158.1 126.072,157.434 130.5,156.5C 130.423,157.75 129.756,158.583 128.5,159C 120.833,159.667 113.167,159.667 105.5,159C 105.154,156.06 104.154,153.56 102.5,151.5C 103.142,148.865 103.809,146.198 104.5,143.5C 104.922,140.692 103.922,138.692 101.5,137.5C 100.498,135.989 99.8308,134.322 99.5,132.5C 101.024,133.174 102.358,134.174 103.5,135.5C 104.795,131.62 104.795,127.786 103.5,124C 101.1,123.814 98.7662,123.314 96.5,122.5C 95.2532,120.958 95.2532,119.458 96.5,118C 95.2341,117.691 94.0674,117.191 93,116.5C 92.6667,116.833 92.3333,117.167 92,117.5C 91.1667,116.5 90.3333,115.5 89.5,114.5C 87.6936,116.508 85.6936,118.175 83.5,119.5C 80.5083,119.191 79.175,117.524 79.5,114.5C 79.8333,114.5 80.1667,114.5 80.5,114.5C 84.4981,117.609 86.8314,116.609 87.5,111.5C 89.369,109.365 90.0356,106.698 89.5,103.5C 94.8333,103.5 100.167,103.5 105.5,103.5 Z"></path>
  </g>
  <g transform="matrix(0.185551, 0, 0, 0.185551, 1.143719, -4.218971)" style="">
    <path style="opacity:1" fill="#d2d1c7" d="M 137.5,128.5 C 143.678,127.183 150.012,127.183 156.5,128.5C 158.288,129.283 159.288,130.616 159.5,132.5C 157.678,132.169 156.011,131.502 154.5,130.5C 153.737,129.732 152.737,129.232 151.5,129C 146.845,128.501 142.179,128.334 137.5,128.5 Z"></path>
  </g>
  <g transform="matrix(0.185551, 0, 0, 0.185551, 1.143719, -4.218971)" style="">
    <path style="opacity:1" fill="#b4b4a8" d="M 94.5,130.5 C 89.8333,130.5 85.1667,130.5 80.5,130.5C 82.8066,128.953 85.4733,128.287 88.5,128.5C 90.9522,128.539 92.9522,129.206 94.5,130.5 Z"></path>
  </g>
  <g transform="matrix(0.185551, 0, 0, 0.185551, 1.143719, -4.218971)" style="">
    <path style="opacity:1" fill="#d3d0c6" d="M 113.5,127.5 C 118.179,127.334 122.845,127.501 127.5,128C 128.252,128.671 128.586,129.504 128.5,130.5C 127.5,130.5 126.5,130.5 125.5,130.5C 124.486,129.235 122.986,128.569 121,128.5C 118.958,128.615 116.958,128.949 115,129.5C 113.97,129.164 113.47,128.497 113.5,127.5 Z"></path>
  </g>
  <g transform="matrix(0.185551, 0, 0, 0.185551, 1.143719, -4.218971)" style="">
    <path style="opacity:1" fill="#b2b2a6" d="M 189.5,130.5 C 185.833,130.5 182.167,130.5 178.5,130.5C 179.871,129.213 181.705,128.547 184,128.5C 186.295,128.547 188.129,129.213 189.5,130.5 Z"></path>
  </g>
  <g transform="matrix(0.185551, 0, 0, 0.185551, 1.143719, -4.218971)" style="">
    <path style="opacity:1" fill="#abac9d" d="M 27.5,129.5 C 28.1667,129.5 28.5,129.833 28.5,130.5C 23.8333,130.5 19.1667,130.5 14.5,130.5C 14.6107,129.883 14.944,129.383 15.5,129C 19.554,128.306 23.554,128.473 27.5,129.5 Z"></path>
  </g>
  <g transform="matrix(0.185551, 0, 0, 0.185551, 1.143719, -4.218971)" style="">
    <path style="opacity:1" fill="#bfbdb2" d="M 61.5,130.5 C 59.8333,130.5 58.1667,130.5 56.5,130.5C 52.5,130.5 48.5,130.5 44.5,130.5C 45.0906,129.849 45.7573,129.182 46.5,128.5C 50.8333,127.167 55.1667,127.167 59.5,128.5C 60.2427,129.182 60.9094,129.849 61.5,130.5 Z"></path>
  </g>
  <g transform="matrix(0.185551, 0, 0, 0.185551, 1.143719, -4.218971)" style="">
    <path style="opacity:1" fill="#828271" d="M 125.5,130.5 C 126.5,130.5 127.5,130.5 128.5,130.5C 128.782,131.778 129.449,132.778 130.5,133.5C 129.182,136.258 128.515,139.424 128.5,143C 128.089,147.681 128.423,149.847 129.5,149.5C 130.5,149.5 131.5,149.5 132.5,149.5C 131.833,150.833 131.167,152.167 130.5,153.5C 130.5,154.5 130.5,155.5 130.5,156.5C 126.072,157.434 121.572,158.1 117,158.5C 113.748,158.481 110.915,157.814 108.5,156.5C 107.356,144.909 107.189,133.243 108,121.5C 109.011,120.663 110.178,120.33 111.5,120.5C 111.5,123.833 111.5,127.167 111.5,130.5C 116.167,130.5 120.833,130.5 125.5,130.5 Z"></path>
  </g>
  <g transform="matrix(0.185551, 0, 0, 0.185551, 1.143719, -4.218971)" style="">
    <path style="opacity:1" fill="#cecdc4" d="M 27.5,129.5 C 23.554,128.473 19.554,128.306 15.5,129C 14.944,129.383 14.6107,129.883 14.5,130.5C 13.5655,131.568 13.2322,132.901 13.5,134.5C 18.1785,134.334 22.8452,134.501 27.5,135C 28.3802,136.356 28.7135,137.856 28.5,139.5C 27.5,139.5 26.5,139.5 25.5,139.5C 25.5,138.167 25.5,136.833 25.5,135.5C 22.0361,135.441 18.7028,136.108 15.5,137.5C 14.5,137.167 13.5,136.833 12.5,136.5C 11.5934,133.579 11.2601,130.579 11.5,127.5C 16.5111,127.334 21.5111,127.501 26.5,128C 27.056,128.383 27.3893,128.883 27.5,129.5 Z"></path>
  </g>
  <g transform="matrix(0.185551, 0, 0, 0.185551, 1.143719, -4.218971)" style="">
    <path style="opacity:1" fill="#dbdcd4" d="M 137.5,128.5 C 137.5,142.5 137.5,156.5 137.5,170.5C 135.856,163.881 134.856,156.881 134.5,149.5C 133.571,150.689 133.238,152.022 133.5,153.5C 132.5,153.5 131.5,153.5 130.5,153.5C 131.167,152.167 131.833,150.833 132.5,149.5C 132.5,144.833 132.5,140.167 132.5,135.5C 133.151,136.091 133.818,136.757 134.5,137.5C 134.906,134.061 135.906,131.061 137.5,128.5 Z"></path>
  </g>
  <g transform="matrix(0.185551, 0, 0, 0.185551, 1.143719, -4.218971)" style="">
    <path style="opacity:1" fill="#939385" d="M -0.5,128.5 C 1.16667,128.5 2.83333,128.5 4.5,128.5C 4.5,138.5 4.5,148.5 4.5,158.5C 4.16667,158.5 3.83333,158.5 3.5,158.5C 3.5,149.167 3.5,139.833 3.5,130.5C 2.16667,130.5 0.833333,130.5 -0.5,130.5C -0.5,129.833 -0.5,129.167 -0.5,128.5 Z"></path>
  </g>
  <g transform="matrix(0.185551, 0, 0, 0.185551, 1.143719, -4.218971)" style="">
    <path style="opacity:1" fill="#9f9e94" d="M 111.5,118.5 C 113.388,120.988 114.055,123.988 113.5,127.5C 113.47,128.497 113.97,129.164 115,129.5C 116.958,128.949 118.958,128.615 121,128.5C 122.986,128.569 124.486,129.235 125.5,130.5C 120.833,130.5 116.167,130.5 111.5,130.5C 111.5,127.167 111.5,123.833 111.5,120.5C 110.178,120.33 109.011,120.663 108,121.5C 107.189,133.243 107.356,144.909 108.5,156.5C 106.52,144.211 105.853,131.544 106.5,118.5C 108.167,118.5 109.833,118.5 111.5,118.5 Z"></path>
  </g>
  <g transform="matrix(0.185551, 0, 0, 0.185551, 1.143719, -4.218971)" style="">
    <path style="opacity:1" fill="#777664" d="M -0.5,130.5 C 0.833333,130.5 2.16667,130.5 3.5,130.5C 3.5,139.833 3.5,149.167 3.5,158.5C 2.16667,158.5 0.833333,158.5 -0.5,158.5C -0.5,149.167 -0.5,139.833 -0.5,130.5 Z"></path>
  </g>
  <g transform="matrix(0.185551, 0, 0, 0.185551, 1.143719, -4.218971)" style="">
    <path style="opacity:1" fill="#fdfcfa" d="M 125.5,137.5 C 125.5,141.167 125.5,144.833 125.5,148.5C 125.715,150.179 125.048,151.179 123.5,151.5C 120.5,151.5 117.5,151.5 114.5,151.5C 114.5,146.167 114.5,140.833 114.5,135.5C 118.413,135.187 122.079,135.853 125.5,137.5 Z"></path>
  </g>
  <g transform="matrix(0.185551, 0, 0, 0.185551, 1.143719, -4.218971)" style="">
    <path style="opacity:1" fill="#d0d2ca" d="M 32.5,132.5 C 33.5,132.5 34.5,132.5 35.5,132.5C 35.6646,135.518 35.498,138.518 35,141.5C 34.3292,142.252 33.4959,142.586 32.5,142.5C 32.5,139.167 32.5,135.833 32.5,132.5 Z"></path>
  </g>
  <g transform="matrix(0.185551, 0, 0, 0.185551, 1.143719, -4.218971)" style="">
    <path style="opacity:1" fill="#dbdbd3" d="M 125.5,137.5 C 122.079,135.853 118.413,135.187 114.5,135.5C 114.5,140.833 114.5,146.167 114.5,151.5C 117.5,151.5 120.5,151.5 123.5,151.5C 120.663,153.402 117.329,154.069 113.5,153.5C 113.5,148.167 113.5,142.833 113.5,137.5C 113.5,136.5 113.5,135.5 113.5,134.5C 117.5,134.5 121.5,134.5 125.5,134.5C 125.5,135.5 125.5,136.5 125.5,137.5 Z"></path>
  </g>
  <g transform="matrix(0.185551, 0, 0, 0.185551, 1.143719, -4.218971)" style="">
    <path style="opacity:1" fill="#99978c" d="M 42.5,132.5 C 40.9798,136.495 39.9798,140.661 39.5,145C 40.2336,149.295 41.9002,153.128 44.5,156.5C 43.448,156.649 42.448,156.483 41.5,156C 37.671,150.374 36.671,144.208 38.5,137.5C 39.1508,135.153 40.4841,133.486 42.5,132.5 Z"></path>
  </g>
  <g transform="matrix(0.185551, 0, 0, 0.185551, 1.143719, -4.218971)" style="">
    <path style="opacity:1" fill="#b3b3ab" d="M 113.5,137.5 C 113.5,142.833 113.5,148.167 113.5,153.5C 112.188,151.257 111.522,148.59 111.5,145.5C 111.522,142.41 112.188,139.743 113.5,137.5 Z"></path>
  </g>
  <g transform="matrix(0.185551, 0, 0, 0.185551, 1.143719, -4.218971)" style="">
    <path style="opacity:1" fill="#a7a79b" d="M 194.5,132.5 C 196.285,134.845 197.951,137.178 199.5,139.5C 199.5,142.833 199.5,146.167 199.5,149.5C 197.985,151.207 196.652,153.207 195.5,155.5C 194.675,156.386 193.675,156.719 192.5,156.5C 192.787,154.879 193.787,153.879 195.5,153.5C 195.833,150.833 196.167,148.167 196.5,145.5C 196.076,141.097 195.409,136.763 194.5,132.5 Z"></path>
  </g>
  <g transform="matrix(0.185551, 0, 0, 0.185551, 1.143719, -4.218971)" style="">
    <path style="opacity:1" fill="#99998c" d="M 56.5,130.5 C 58.1667,130.5 59.8333,130.5 61.5,130.5C 61.5,131.167 61.5,131.833 61.5,132.5C 60.448,132.351 59.448,132.517 58.5,133C 62.3148,135.184 63.9815,138.517 63.5,143C 63.4668,145.61 62.8001,147.777 61.5,149.5C 61.5,145.5 61.5,141.5 61.5,137.5C 58.7847,136.549 55.9514,135.883 53,135.5C 50.0486,135.883 47.2153,136.549 44.5,137.5C 44.4142,136.504 44.7476,135.671 45.5,135C 49.3353,133.374 53.3353,132.374 57.5,132C 56.944,131.617 56.6107,131.117 56.5,130.5 Z"></path>
  </g>
  <g transform="matrix(0.185551, 0, 0, 0.185551, 1.143719, -4.218971)" style="">
    <path style="opacity:1" fill="#ccccc2" d="M 163.5,137.5 C 165.167,137.5 166.833,137.5 168.5,137.5C 168.5,140.5 168.5,143.5 168.5,146.5C 167.167,146.5 165.833,146.5 164.5,146.5C 164.737,147.791 164.404,148.791 163.5,149.5C 163.5,145.5 163.5,141.5 163.5,137.5 Z"></path>
  </g>
  <g transform="matrix(0.185551, 0, 0, 0.185551, 1.143719, -4.218971)" style="">
    <path style="opacity:1" fill="#cfd0c8" d="M -0.5,128.5 C -0.5,128.167 -0.5,127.833 -0.5,127.5C 1.83333,127.5 4.16667,127.5 6.5,127.5C 7.14195,138.221 6.47528,148.554 4.5,158.5C 4.5,148.5 4.5,138.5 4.5,128.5C 2.83333,128.5 1.16667,128.5 -0.5,128.5 Z"></path>
  </g>
  <g transform="matrix(0.185551, 0, 0, 0.185551, 1.143719, -4.218971)" style="">
    <path style="opacity:1" fill="#7a7b69" d="M 130.5,133.5 C 131.167,134.167 131.833,134.833 132.5,135.5C 132.5,140.167 132.5,144.833 132.5,149.5C 131.5,149.5 130.5,149.5 129.5,149.5C 128.423,149.847 128.089,147.681 128.5,143C 128.515,139.424 129.182,136.258 130.5,133.5 Z"></path>
  </g>
  <g transform="matrix(0.185551, 0, 0, 0.185551, 1.143719, -4.218971)" style="">
    <path style="opacity:1" fill="#c9c9be" d="M 73.5,137.5 C 73.5,142.167 73.5,146.833 73.5,151.5C 70.6771,147.68 69.8438,143.347 71,138.5C 71.6708,137.748 72.5041,137.414 73.5,137.5 Z"></path>
  </g>
  <g transform="matrix(0.185551, 0, 0, 0.185551, 1.143719, -4.218971)" style="">
    <path style="opacity:1" fill="#d0d0cb" d="M 125.5,137.5 C 126.787,138.871 127.453,140.705 127.5,143C 127.453,145.295 126.787,147.129 125.5,148.5C 125.5,144.833 125.5,141.167 125.5,137.5 Z"></path>
  </g>
  <g transform="matrix(0.185551, 0, 0, 0.185551, 1.143719, -4.218971)" style="">
    <path style="opacity:1" fill="#d4d5cd" d="M 30.5,144.5 C 33.9237,144.931 35.5903,146.931 35.5,150.5C 35.9311,153.393 34.9311,155.393 32.5,156.5C 32.8495,152.258 32.1828,148.258 30.5,144.5 Z"></path>
  </g>
  <g transform="matrix(0.185551, 0, 0, 0.185551, 1.143719, -4.218971)" style="">
    <path style="opacity:1" fill="#878776" d="M 80.5,130.5 C 85.1667,130.5 89.8333,130.5 94.5,130.5C 96.3224,130.831 97.9891,131.498 99.5,132.5C 99.8308,134.322 100.498,135.989 101.5,137.5C 101.943,143.058 101.276,148.391 99.5,153.5C 99.5,154.5 99.5,155.5 99.5,156.5C 95.1578,156.976 90.8245,157.643 86.5,158.5C 82.7828,157.936 79.1161,157.27 75.5,156.5C 75.1692,154.678 74.5025,153.011 73.5,151.5C 73.5,146.833 73.5,142.167 73.5,137.5C 74.5025,135.989 75.1692,134.322 75.5,132.5C 77.3224,132.169 78.9891,131.502 80.5,130.5 Z"></path>
  </g>
  <g transform="matrix(0.185551, 0, 0, 0.185551, 1.143719, -4.218971)" style="">
    <path style="opacity:1" fill="#d3d2cd" d="M 80.5,137.5 C 80.5,141.5 80.5,145.5 80.5,149.5C 79.2057,147.952 78.5391,145.952 78.5,143.5C 78.5391,141.048 79.2057,139.048 80.5,137.5 Z"></path>
  </g>
  <g transform="matrix(0.185551, 0, 0, 0.185551, 1.143719, -4.218971)" style="">
    <path style="opacity:1" fill="#f9f8f6" d="M 92.5,135.5 C 97.2666,140.486 97.5999,145.82 93.5,151.5C 90.0478,153.652 86.3812,153.986 82.5,152.5C 81.3881,151.735 80.7214,150.735 80.5,149.5C 80.5,145.5 80.5,141.5 80.5,137.5C 84.2584,135.817 88.2584,135.151 92.5,135.5 Z"></path>
  </g>
  <g transform="matrix(0.185551, 0, 0, 0.185551, 1.143719, -4.218971)" style="">
    <path style="opacity:1" fill="#bdbeb3" d="M 92.5,135.5 C 88.2584,135.151 84.2584,135.817 80.5,137.5C 80.5,136.5 80.5,135.5 80.5,134.5C 84.7016,134.183 88.7016,134.517 92.5,135.5 Z"></path>
  </g>
  <g transform="matrix(0.185551, 0, 0, 0.185551, 1.143719, -4.218971)" style="">
    <path style="opacity:1" fill="#9f9f93" d="M 137.5,128.5 C 142.179,128.334 146.845,128.501 151.5,129C 152.737,129.232 153.737,129.732 154.5,130.5C 149.5,130.5 144.5,130.5 139.5,130.5C 138.393,142.8 138.227,155.134 139,167.5C 140.011,168.337 141.178,168.67 142.5,168.5C 141.931,164.671 142.598,161.337 144.5,158.5C 144.5,162.5 144.5,166.5 144.5,170.5C 142.167,170.5 139.833,170.5 137.5,170.5C 137.5,156.5 137.5,142.5 137.5,128.5 Z"></path>
  </g>
  <g transform="matrix(0.185551, 0, 0, 0.185551, 1.143719, -4.218971)" style="">
    <path style="opacity:1" fill="#838272" d="M 44.5,130.5 C 48.5,130.5 52.5,130.5 56.5,130.5C 56.6107,131.117 56.944,131.617 57.5,132C 53.3353,132.374 49.3353,133.374 45.5,135C 44.7476,135.671 44.4142,136.504 44.5,137.5C 44.5,138.167 44.5,138.833 44.5,139.5C 43.2227,140.694 42.5561,142.36 42.5,144.5C 42.5561,146.64 43.2227,148.306 44.5,149.5C 47.0618,151.796 50.2285,153.129 54,153.5C 57.395,153.556 59.895,152.223 61.5,149.5C 62.8001,147.777 63.4668,145.61 63.5,143C 63.9815,138.517 62.3148,135.184 58.5,133C 59.448,132.517 60.448,132.351 61.5,132.5C 63.1667,132.5 64.8333,132.5 66.5,132.5C 67.349,136.438 68.0156,140.438 68.5,144.5C 68.1667,146.833 67.8333,149.167 67.5,151.5C 66.4763,152.853 65.143,153.52 63.5,153.5C 63.5198,155.143 62.8532,156.476 61.5,157.5C 58.6667,157.833 55.8333,158.167 53,158.5C 49.7485,158.481 46.9151,157.814 44.5,156.5C 41.9002,153.128 40.2336,149.295 39.5,145C 39.9798,140.661 40.9798,136.495 42.5,132.5C 43.8333,132.5 44.5,131.833 44.5,130.5 Z"></path>
  </g>
  <g transform="matrix(0.185551, 0, 0, 0.185551, 1.143719, -4.218971)" style="">
    <path style="opacity:1" fill="#abab9a" d="M 44.5,139.5 C 44.5,142.833 44.5,146.167 44.5,149.5C 43.2227,148.306 42.5561,146.64 42.5,144.5C 42.5561,142.36 43.2227,140.694 44.5,139.5 Z"></path>
  </g>
  <g transform="matrix(0.185551, 0, 0, 0.185551, 1.143719, -4.218971)" style="">
    <path style="opacity:1" fill="#f6f6f3" d="M 61.5,149.5 C 59.895,152.223 57.395,153.556 54,153.5C 50.2285,153.129 47.0618,151.796 44.5,149.5C 44.5,146.167 44.5,142.833 44.5,139.5C 44.5,138.833 44.5,138.167 44.5,137.5C 47.2153,136.549 50.0486,135.883 53,135.5C 55.9514,135.883 58.7847,136.549 61.5,137.5C 61.5,141.5 61.5,145.5 61.5,149.5 Z"></path>
  </g>
  <g transform="matrix(0.185551, 0, 0, 0.185551, 1.143719, -4.218971)" style="">
    <path style="opacity:1" fill="#d7d6cd" d="M 18.5,146.5 C 20.8568,146.337 23.1902,146.503 25.5,147C 27.9815,148.804 27.9815,150.304 25.5,151.5C 25.2786,150.265 24.6119,149.265 23.5,148.5C 21.7086,147.83 20.0419,147.163 18.5,146.5 Z"></path>
  </g>
  <g transform="matrix(0.185551, 0, 0, 0.185551, 1.143719, -4.218971)" style="">
    <path style="opacity:1" fill="#818170" d="M 178.5,130.5 C 182.167,130.5 185.833,130.5 189.5,130.5C 191.322,130.831 192.989,131.498 194.5,132.5C 195.409,136.763 196.076,141.097 196.5,145.5C 196.167,148.167 195.833,150.833 195.5,153.5C 193.787,153.879 192.787,154.879 192.5,156.5C 188.884,157.27 185.217,157.936 181.5,158.5C 179.5,158.167 177.5,157.833 175.5,157.5C 171.372,154.896 169.038,151.229 168.5,146.5C 168.5,143.5 168.5,140.5 168.5,137.5C 170.161,132.946 173.494,130.612 178.5,130.5 Z"></path>
  </g>
  <g transform="matrix(0.185551, 0, 0, 0.185551, 1.143719, -4.218971)" style="">
    <path style="opacity:1" fill="#c2beb6" d="M 175.5,137.5 C 175.5,141.5 175.5,145.5 175.5,149.5C 174.206,147.952 173.539,145.952 173.5,143.5C 173.539,141.048 174.206,139.048 175.5,137.5 Z"></path>
  </g>
  <g transform="matrix(0.185551, 0, 0, 0.185551, 1.143719, -4.218971)" style="">
    <path style="opacity:1" fill="#b3b2a5" d="M 187.5,135.5 C 183.258,135.151 179.258,135.817 175.5,137.5C 175.5,136.5 175.5,135.5 175.5,134.5C 179.702,134.183 183.702,134.517 187.5,135.5 Z"></path>
  </g>
  <g transform="matrix(0.185551, 0, 0, 0.185551, 1.143719, -4.218971)" style="">
    <path style="opacity:1" fill="#f7f7f4" d="M 187.5,135.5 C 189.011,136.502 190.678,137.169 192.5,137.5C 194.899,149.43 190.232,154.43 178.5,152.5C 177.007,151.859 176.007,150.859 175.5,149.5C 175.5,145.5 175.5,141.5 175.5,137.5C 179.258,135.817 183.258,135.151 187.5,135.5 Z"></path>
  </g>
  <g transform="matrix(0.185551, 0, 0, 0.185551, 1.143719, -4.218971)" style="">
    <path style="opacity:1" fill="#c8c9be" d="M 101.5,137.5 C 103.922,138.692 104.922,140.692 104.5,143.5C 103.809,146.198 103.142,148.865 102.5,151.5C 102.179,153.048 101.179,153.715 99.5,153.5C 101.276,148.391 101.943,143.058 101.5,137.5 Z"></path>
  </g>
  <g transform="matrix(0.185551, 0, 0, 0.185551, 1.143719, -4.218971)" style="">
    <path style="opacity:1" fill="#d3d3cd" d="M 18.5,153.5 C 16.8333,153.5 15.1667,153.5 13.5,153.5C 13.5,155.167 13.5,156.833 13.5,158.5C 11.6565,156.721 10.9898,154.388 11.5,151.5C 14.3878,150.99 16.7211,151.656 18.5,153.5 Z"></path>
  </g>
  <g transform="matrix(0.185551, 0, 0, 0.185551, 1.143719, -4.218971)" style="">
    <path style="opacity:1" fill="#848575" d="M 14.5,130.5 C 19.1667,130.5 23.8333,130.5 28.5,130.5C 29.8333,131.167 31.1667,131.833 32.5,132.5C 32.5,135.833 32.5,139.167 32.5,142.5C 31.1667,142.5 30.5,143.167 30.5,144.5C 32.1828,148.258 32.8495,152.258 32.5,156.5C 26.3058,158.125 19.9724,158.792 13.5,158.5C 13.5,156.833 13.5,155.167 13.5,153.5C 15.1667,153.5 16.8333,153.5 18.5,153.5C 21.3878,154.01 23.7211,153.344 25.5,151.5C 27.9815,150.304 27.9815,148.804 25.5,147C 23.1902,146.503 20.8568,146.337 18.5,146.5C 18.5,144.833 18.5,143.167 18.5,141.5C 21.0758,141.532 23.4091,140.865 25.5,139.5C 26.5,139.5 27.5,139.5 28.5,139.5C 28.7135,137.856 28.3802,136.356 27.5,135C 22.8452,134.501 18.1785,134.334 13.5,134.5C 13.2322,132.901 13.5655,131.568 14.5,130.5 Z"></path>
  </g>
  <g transform="matrix(0.185551, 0, 0, 0.185551, 1.143719, -4.218971)" style="">
    <path style="opacity:1" fill="#7f7e6d" d="M 154.5,130.5 C 156.011,131.502 157.678,132.169 159.5,132.5C 161.387,133.656 162.721,135.323 163.5,137.5C 163.5,141.5 163.5,145.5 163.5,149.5C 162.506,151.658 161.172,153.658 159.5,155.5C 154.754,157.783 149.754,158.783 144.5,158.5C 142.598,161.337 141.931,164.671 142.5,168.5C 141.178,168.67 140.011,168.337 139,167.5C 138.227,155.134 138.393,142.8 139.5,130.5C 144.5,130.5 149.5,130.5 154.5,130.5 Z"></path>
  </g>
  <g transform="matrix(0.185551, 0, 0, 0.185551, 1.143719, -4.218971)" style="">
    <path style="opacity:1" fill="#c7c9bf" d="M 156.5,139.5 C 157.765,140.514 158.431,142.014 158.5,144C 158.431,145.986 157.765,147.486 156.5,148.5C 156.5,145.5 156.5,142.5 156.5,139.5 Z"></path>
  </g>
  <g transform="matrix(0.185551, 0, 0, 0.185551, 1.143719, -4.218971)" style="">
    <path style="opacity:1" fill="#b4b2a5" d="M 154.5,135.5 C 151.167,135.5 147.833,135.5 144.5,135.5C 144.5,141.5 144.5,147.5 144.5,153.5C 142.544,147.588 141.877,141.255 142.5,134.5C 146.702,134.183 150.702,134.517 154.5,135.5 Z"></path>
  </g>
  <g transform="matrix(0.185551, 0, 0, 0.185551, 1.143719, -4.218971)" style="">
    <path style="opacity:1" fill="#f9f9f6" d="M 154.5,135.5 C 155.167,136.833 155.833,138.167 156.5,139.5C 156.5,142.5 156.5,145.5 156.5,148.5C 156.52,150.143 155.853,151.476 154.5,152.5C 151.232,153.487 147.898,153.82 144.5,153.5C 144.5,147.5 144.5,141.5 144.5,135.5C 147.833,135.5 151.167,135.5 154.5,135.5 Z"></path>
  </g>
  <g transform="matrix(-0.123602, 0, 0, 0.185551, 7.088314, -4.345191)" style="">
    <path style="opacity:1" fill="#848575" d="M 14.5,130.5 C 19.1667,130.5 23.8333,130.5 28.5,130.5C 29.8333,131.167 31.1667,131.833 32.5,132.5C 32.5,135.833 32.5,139.167 32.5,142.5C 31.1667,142.5 30.5,143.167 30.5,144.5C 32.1828,148.258 32.8495,152.258 32.5,156.5C 26.3058,158.125 19.9724,158.792 13.5,158.5C 13.5,156.833 13.5,155.167 13.5,153.5C 15.1667,153.5 16.8333,153.5 18.5,153.5C 21.3878,154.01 23.7211,153.344 25.5,151.5C 27.9815,150.304 27.9815,148.804 25.5,147C 23.1902,146.503 20.8568,146.337 18.5,146.5C 18.5,144.833 18.5,143.167 18.5,141.5C 21.0758,141.532 23.4091,140.865 25.5,139.5C 26.5,139.5 27.5,139.5 28.5,139.5C 28.7135,137.856 28.3802,136.356 27.5,135C 22.8452,134.501 18.1785,134.334 13.5,134.5C 13.2322,132.901 13.5655,131.568 14.5,130.5 Z"></path>
  </g>
</svg>