<svg viewBox="0 0 46 26" xmlns="http://www.w3.org/2000/svg">
  <g transform="matrix(0.312696, 0, 0, 0.312696, -47.364235, -50.382156)" style="transform-origin: 46.3642px 50.3821px;">
    <path d="M68.196,88.874L68.196,97.262L58.344,97.262L58.344,88.874L54.355,88.874L54.355,107.758L58.344,107.758L58.344,98.954L68.196,98.954L68.192,105.73C68.192,106.154 68.278,106.505 68.446,106.776C68.614,107.038 68.828,107.246 69.082,107.395C69.328,107.537 69.599,107.635 69.892,107.688C70.179,107.736 70.429,107.76 70.659,107.76L72.188,107.76L72.188,88.874" style="fill:rgb(0,99,151);fill-rule:nonzero;"></path>
    <path d="M146.172,107.76L146.172,88.874L142.269,88.874L134.462,102.862L126.5,88.874L122.552,88.874L122.552,107.76L124.586,107.76L124.586,93.115L132.968,107.76L134.008,107.76L142.169,93.228L142.169,105.725C142.169,106.152 142.261,106.502 142.431,106.774C142.596,107.033 142.809,107.239 143.064,107.39C143.311,107.537 143.585,107.635 143.875,107.683C144.156,107.731 144.408,107.76 144.643,107.76" style="fill:rgb(0,99,151);fill-rule:nonzero;"></path>
    <path d="M171.191,107.758L161.218,88.457L160.049,88.457L149.833,107.76L152.165,107.76L155.338,101.755L162.583,101.755L161.581,99.828L156.357,99.828L159.715,93.482L166.302,106.258C166.562,106.781 166.886,107.17 167.266,107.405C167.648,107.65 168.149,107.758 168.755,107.758" style="fill:rgb(0,99,151);fill-rule:nonzero;"></path>
    <path d="M191.943,88.874C191.835,88.874 191.717,88.882 191.575,88.903C191.433,88.932 191.297,88.98 191.173,89.052C191.038,89.131 190.928,89.239 190.846,89.371C190.755,89.515 190.71,89.695 190.71,89.909L190.71,102.082L177.43,88.874L174.87,88.874L174.87,107.758L177.197,107.758L177.197,93.521L190.672,107.29C191.222,107.798 191.981,107.758 192.72,107.758L192.998,107.758L192.998,88.874" style="fill:rgb(0,99,151);fill-rule:nonzero;"></path>
    <path d="M92.63,81.3C92.63,81.3 97.279,78.689 100.758,77.227C109.339,73.625 116.89,71.508 123.848,70.205C129.465,69.154 146.598,66.521 160.179,70.728C160.395,73.855 159.532,77.446 157.791,81.3L163.364,81.3C164.736,78.454 165.668,75.72 166.097,73.164C168.204,74.292 170.136,75.66 171.813,77.321C173.366,78.859 174.869,81.3 174.869,81.3L177.331,81.3C177.331,81.3 176.281,78.953 173.957,76.613C171.8,74.441 169.122,72.79 166.305,71.532C166.726,66.557 165.072,62.352 160.855,59.441C150.768,52.478 130.746,56.477 112.305,66.254C104.045,70.634 96.516,75.955 90.334,81.3L92.63,81.3ZM149.823,67.634C140.898,66.883 130.73,67.942 123.93,69.305C115.638,70.97 107.905,73.289 100.604,76.45C98.938,77.172 97.341,77.962 95.749,78.802C100.789,75.048 106.488,71.434 112.548,68.383C129.573,59.808 147.441,56.563 155.874,62.786C158.199,64.5 159.53,66.734 160.008,69.35C155.959,68.282 152.191,67.834 149.823,67.634Z" style="fill:rgb(24,164,222);fill-rule:nonzero;"></path>
    <path d="M87.322,88.457L86.154,88.457L75.921,107.758L78.252,107.758L85.819,93.482L89.092,99.828L83.84,99.828L82.827,101.755L90.096,101.755L92.395,106.26C92.655,106.783 92.979,107.172 93.359,107.41C93.742,107.652 94.242,107.76 94.848,107.76L97.304,107.76" style="fill:rgb(0,99,151);fill-rule:nonzero;"></path>
    <path d="M146.47,117.864L144.951,117.864C134.912,122.014 123.286,124.75 111.574,125.206C116.611,123.432 121.939,120.977 127.296,117.864L122.272,117.864C116.975,120.857 111.733,123.17 106.84,124.738C106.303,124.91 105.774,125.071 105.251,125.225C96.732,124.908 89.974,123.01 85.282,120.101C84.163,119.405 83.182,118.654 82.305,117.864L81.286,117.864C82.326,118.93 83.552,119.928 84.973,120.835C89.115,123.478 94.868,125.354 102.031,126.062C95.454,127.567 90.092,127.452 86.155,126.142C82.216,124.829 79.276,122.328 78.197,119.042C78.073,118.661 77.969,118.267 77.881,117.864L77.237,117.864C77.34,118.375 77.466,118.877 77.623,119.359C78.811,123.017 82.065,125.822 86.274,127.325C91.275,129.115 98.535,129.108 107.675,126.461C107.773,126.432 107.871,126.403 107.968,126.372C120.17,126.49 134.006,123.643 146.47,117.864Z" style="fill:rgb(24,164,222);fill-rule:nonzero;"></path>
    <path d="M112.971,106.243L107.088,99.125L105.044,99.125L105.044,107.755L101.056,107.755L101.056,88.872L108.378,88.872C108.378,88.872 111.4,88.826 113.379,89.806C115.358,90.785 116.195,92.16 116.195,93.905C116.195,95.65 115.138,97.709 111.355,98.743L118.975,107.758L115.92,107.758C115.92,107.758 115.278,107.76 114.529,107.51C113.78,107.258 112.971,106.243 112.971,106.243ZM105.034,90.53L105.034,97.685L106.88,97.685C106.88,97.685 108.712,97.711 109.902,97.037C111.092,96.362 111.934,95.424 111.934,94.022C111.934,92.621 111.026,91.38 109.741,90.888C109.741,90.888 109.006,90.53 107.695,90.53" style="fill:rgb(0,99,151);fill-rule:nonzero;"></path>
  </g>
</svg>