<svg viewBox="0 0 39 14" xmlns="http://www.w3.org/2000/svg">
  <path d="M 6.592 9.604 Q 6.581 10.14 6.484 10.619 Q 6.387 11.098 6.114 11.571 Q 5.84 12.044 5.31 12.562 Q 4.78 13.081 3.891 13.697 L 3.503 13.207 Q 4.039 12.682 4.341 12.186 Q 4.643 11.69 4.774 11.08 Q 4.905 10.471 4.928 9.627 Q 4.985 8.065 4.939 6.811 Q 4.894 5.557 4.871 4.839 L 3.777 4.543 L 3.891 4.098 Q 4.153 4.109 4.409 4.121 Q 4.666 4.132 4.985 4.138 Q 5.304 4.144 5.772 4.144 Q 6.444 4.144 6.815 4.126 Q 7.185 4.109 7.482 4.098 L 7.618 4.543 L 6.604 4.839 Q 6.604 5.466 6.61 6.156 Q 6.615 6.845 6.615 7.678 Q 6.615 8.51 6.592 9.604 Z M 11.379 8.088 L 11.379 9.034 L 8.506 9.034 L 8.506 8.088 Z M 16.566 4.782 Q 16.555 5.911 16.555 6.783 Q 16.555 7.655 16.555 8.441 Q 16.555 9.023 16.555 9.604 Q 16.555 10.186 16.566 10.892 L 17.774 11.189 L 17.626 11.622 Q 17.33 11.599 16.8 11.593 Q 16.27 11.588 15.722 11.588 Q 15.198 11.588 14.668 11.599 Q 14.138 11.611 13.784 11.622 L 13.625 11.189 L 14.856 10.892 Q 14.879 10.049 14.896 9.348 Q 14.913 8.647 14.913 7.928 Q 14.913 7.256 14.896 6.486 Q 14.879 5.717 14.856 4.782 Z M 19.165 4.098 Q 19.085 4.793 19.063 5.426 Q 19.04 6.059 19.04 6.595 L 18.299 6.595 L 18.002 4.942 Q 17.809 4.919 17.569 4.913 Q 17.33 4.907 17.09 4.907 Q 16.737 4.907 16.384 4.93 Q 16.03 4.953 15.745 5.01 Q 15.449 4.953 15.073 4.936 Q 14.696 4.919 14.32 4.919 Q 14.104 4.919 13.898 4.924 Q 13.693 4.93 13.511 4.942 L 13.214 6.595 L 12.473 6.595 Q 12.462 6.059 12.428 5.443 Q 12.394 4.828 12.325 4.098 Q 12.713 4.109 13.277 4.121 Q 13.841 4.132 14.497 4.138 Q 15.152 4.144 15.825 4.144 Q 16.509 4.144 17.147 4.138 Q 17.786 4.132 18.31 4.121 Q 18.835 4.109 19.165 4.098 Z M 22.22 6.64 Q 22.79 6.64 23.275 6.891 Q 23.759 7.142 24.05 7.649 Q 24.341 8.156 24.341 8.92 Q 24.09 8.966 23.68 9 Q 23.269 9.034 22.779 9.051 Q 22.289 9.068 21.799 9.068 Q 21.434 9.068 21.172 9.057 Q 20.909 9.046 20.818 9.034 L 20.818 8.487 Q 20.944 8.487 21.2 8.487 Q 21.457 8.487 21.776 8.476 Q 22.095 8.464 22.397 8.441 Q 22.699 8.419 22.904 8.384 Q 22.893 8.145 22.773 7.9 Q 22.654 7.655 22.414 7.484 Q 22.175 7.313 21.799 7.313 Q 21.571 7.529 21.434 7.911 Q 21.297 8.293 21.297 8.795 Q 21.297 9.821 21.724 10.305 Q 22.152 10.79 22.779 10.79 Q 23.417 10.79 24.124 10.334 L 24.375 10.858 Q 23.885 11.303 23.326 11.497 Q 22.768 11.69 22.22 11.69 Q 21.582 11.69 21.029 11.411 Q 20.476 11.132 20.14 10.573 Q 19.804 10.015 19.804 9.182 Q 19.804 8.339 20.151 7.774 Q 20.499 7.21 21.052 6.925 Q 21.605 6.64 22.22 6.64 Z M 29.425 10.835 Q 29.038 11.189 28.508 11.44 Q 27.978 11.69 27.294 11.69 Q 26.473 11.69 25.92 11.326 Q 25.367 10.961 25.093 10.391 Q 24.82 9.821 24.82 9.194 Q 24.82 8.555 25.105 7.974 Q 25.39 7.393 25.965 7.022 Q 26.541 6.652 27.43 6.652 Q 27.909 6.652 28.371 6.76 Q 28.833 6.868 29.254 7.13 Q 29.095 7.723 29.026 8.105 Q 28.958 8.487 28.89 8.829 L 28.32 8.829 L 28.149 7.792 Q 27.864 7.552 27.499 7.415 Q 27.134 7.279 26.769 7.301 Q 26.53 7.586 26.399 7.974 Q 26.268 8.362 26.268 8.772 Q 26.268 9.388 26.484 9.832 Q 26.701 10.277 27.06 10.522 Q 27.419 10.767 27.841 10.767 Q 28.126 10.767 28.451 10.647 Q 28.776 10.528 29.118 10.277 Z M 32.161 3.129 Q 32.161 4.28 32.161 5.295 Q 32.161 6.31 32.155 7.085 Q 32.149 7.86 32.138 8.305 L 32.172 10.961 L 33.016 11.2 L 32.856 11.622 Q 32.48 11.599 32.109 11.593 Q 31.739 11.588 31.283 11.588 Q 30.838 11.588 30.451 11.599 Q 30.063 11.611 29.732 11.622 L 29.539 11.2 L 30.53 10.961 Q 30.565 10.22 30.582 9.331 Q 30.599 8.441 30.599 7.541 Q 30.599 6.526 30.57 5.648 Q 30.542 4.771 30.473 3.95 L 29.584 3.802 L 29.459 3.334 Q 30.029 3.323 30.724 3.266 Q 31.42 3.209 32.161 3.129 Z M 34.076 6.663 Q 34.783 6.663 35.199 7.153 Q 35.615 7.643 35.66 8.419 Q 35.683 8.624 35.672 9.063 Q 35.66 9.502 35.655 10.015 Q 35.649 10.528 35.649 10.961 L 36.493 11.2 L 36.322 11.622 Q 35.706 11.588 34.84 11.588 Q 34.406 11.588 34.053 11.599 Q 33.7 11.611 33.403 11.622 L 33.244 11.2 L 34.076 10.961 Q 34.099 10.573 34.11 10.305 Q 34.121 10.037 34.127 9.769 Q 34.133 9.502 34.121 9.137 Q 34.11 8.339 33.842 8.042 Q 33.574 7.746 33.038 7.746 Q 32.537 8.077 32.337 8.533 Q 32.138 8.989 32.149 9.422 L 31.739 8.92 Q 31.819 8.27 32.144 7.757 Q 32.468 7.244 32.97 6.954 Q 33.472 6.663 34.076 6.663 Z" transform="matrix(1.175589, 0, 0, 1.191495, -3.9474, -3.200664)" style="fill: rgb(17, 77, 104);"></path>
</svg>