<svg viewBox="0 0 41 50" xmlns="http://www.w3.org/2000/svg">
  <rect x="0.73" y="0.979" width="18.366" height="18.366" style="stroke-opacity: 0.9; fill: rgb(223, 36, 36);"></rect>
  <rect x="21.353" y="0.979" width="18.366" height="18.366" style="stroke-opacity: 0.9; fill: rgb(210, 34, 34);"></rect>
  <rect x="0.974" y="21.576" width="18.366" height="18.366" style="stroke-opacity: 0.9; fill: rgb(155, 7, 7);"></rect>
  <path d="M 21.82 30.161 L 30.273 20.958 L 30.276 23.629 L 24.286 30.151 L 30.284 36.77 L 30.286 39.504 L 21.82 30.161 Z" style="fill: rgb(218, 9, 9); transform-origin: 26.05px 30.197px;"></path>
  <path d="M 25.536 29.856 L 33.989 20.653 L 33.99 23.324 L 28.001 29.845 L 34.002 36.466 L 34.002 39.2 L 25.536 29.856 Z" style="fill: rgb(218, 9, 9); transform-origin: 29.765px 29.891px;"></path>
  <path d="M 29.801 29.963 L 38.255 20.76 L 38.257 23.43 L 32.267 29.953 L 38.267 36.572 L 38.268 39.306 L 29.801 29.963 Z" style="fill: rgb(218, 9, 9); transform-origin: 34.032px 29.999px;"></path>
  <path d="M 2.527 48.814 L 2.527 41.656 L 3.475 41.656 L 3.475 45.206 L 7.029 41.656 L 8.314 41.656 L 5.311 44.556 L 8.445 48.814 L 7.195 48.814 L 4.647 45.191 L 3.475 46.334 L 3.475 48.814 Z M 9.397 48.814 L 9.397 41.656 L 10.344 41.656 L 10.344 48.814 Z M 11.69 46.514 L 12.584 46.436 Q 12.647 46.973 12.879 47.317 Q 13.111 47.662 13.6 47.874 Q 14.088 48.086 14.698 48.086 Q 15.24 48.086 15.655 47.925 Q 16.07 47.764 16.273 47.483 Q 16.476 47.203 16.476 46.871 Q 16.476 46.534 16.28 46.282 Q 16.085 46.031 15.636 45.86 Q 15.348 45.748 14.361 45.511 Q 13.375 45.274 12.979 45.064 Q 12.467 44.795 12.215 44.397 Q 11.964 44 11.964 43.506 Q 11.964 42.964 12.271 42.493 Q 12.579 42.022 13.17 41.778 Q 13.761 41.534 14.483 41.534 Q 15.279 41.534 15.887 41.79 Q 16.495 42.046 16.822 42.544 Q 17.149 43.043 17.174 43.672 L 16.266 43.741 Q 16.192 43.062 15.77 42.715 Q 15.348 42.369 14.522 42.369 Q 13.663 42.369 13.27 42.684 Q 12.877 42.999 12.877 43.443 Q 12.877 43.829 13.155 44.078 Q 13.429 44.327 14.583 44.588 Q 15.738 44.849 16.168 45.044 Q 16.793 45.333 17.091 45.774 Q 17.389 46.216 17.389 46.793 Q 17.389 47.364 17.062 47.869 Q 16.734 48.375 16.122 48.655 Q 15.509 48.936 14.742 48.936 Q 13.77 48.936 13.114 48.653 Q 12.457 48.37 12.083 47.801 Q 11.71 47.232 11.69 46.514 Z M 18.711 48.814 L 18.711 41.656 L 19.658 41.656 L 19.658 44.595 L 23.379 44.595 L 23.379 41.656 L 24.326 41.656 L 24.326 48.814 L 23.379 48.814 L 23.379 45.44 L 19.658 45.44 L 19.658 48.814 Z M 25.118 48.814 L 27.867 41.656 L 28.887 41.656 L 31.817 48.814 L 30.738 48.814 L 29.903 46.646 L 26.91 46.646 L 26.124 48.814 Z M 27.183 45.875 L 29.61 45.875 L 28.863 43.892 Q 28.521 42.989 28.355 42.408 Q 28.218 43.096 27.969 43.775 Z M 31.787 48.814 L 34.536 41.656 L 35.557 41.656 L 38.486 48.814 L 37.407 48.814 L 36.572 46.646 L 33.579 46.646 L 32.793 48.814 Z M 33.852 45.875 L 36.279 45.875 L 35.532 43.892 Q 35.19 42.989 35.024 42.408 Q 34.888 43.096 34.639 43.775 Z" transform="matrix(1.057818, 0, 0, 1, -1.127633, 0)" style="fill: rgb(158, 153, 153);"></path>
</svg>